<svg width="409" height="120" viewBox="0 0 409 120" fill="none" xmlns="http://www.w3.org/2000/svg">
<g clip-path="url(#clip0_302_790)">
<rect width="409" height="120" fill="white"/>
<path d="M91 0V120" stroke="#888888" stroke-width="0.5" stroke-dasharray="1 3"/>
<path d="M131 0V120" stroke="#888888" stroke-width="0.5" stroke-dasharray="1 3"/>
<path d="M171 0V120" stroke="#888888" stroke-width="0.5" stroke-dasharray="1 3"/>
<path d="M211 0V120" stroke="#888888" stroke-width="0.5" stroke-dasharray="1 3"/>
<path d="M251 0V120" stroke="#888888" stroke-width="0.5" stroke-dasharray="1 3"/>
<path d="M291 0V120" stroke="#888888" stroke-width="0.5" stroke-dasharray="1 3"/>
<path d="M331 0V120" stroke="#888888" stroke-width="0.5" stroke-dasharray="1 3"/>
<path d="M371 0V120" stroke="#888888" stroke-width="0.5" stroke-dasharray="1 3"/>
<path d="M9.08736 20L6.70099 11.2727H7.77486L9.59872 18.3807H9.68395L11.5419 11.2727H12.7351L14.593 18.3807H14.6783L16.5021 11.2727H17.576L15.1896 20H14.0987L12.1726 13.0455H12.1044L10.1783 20H9.08736ZM18.3462 20V13.4545H19.3178V14.4432H19.386C19.5053 14.1193 19.7212 13.8565 20.0337 13.6548C20.3462 13.4531 20.6985 13.3523 21.0906 13.3523C21.1644 13.3523 21.2567 13.3537 21.3675 13.3565C21.4783 13.3594 21.5621 13.3636 21.619 13.3693V14.392C21.5849 14.3835 21.5067 14.3707 21.3846 14.3537C21.2653 14.3338 21.1388 14.3239 21.0053 14.3239C20.6871 14.3239 20.4031 14.3906 20.1531 14.5241C19.9059 14.6548 19.7099 14.8366 19.565 15.0696C19.4229 15.2997 19.3519 15.5625 19.3519 15.858V20H18.3462ZM22.8111 20V13.4545H23.8168V20H22.8111ZM23.3224 12.3636C23.1264 12.3636 22.9574 12.2969 22.8153 12.1634C22.6761 12.0298 22.6065 11.8693 22.6065 11.6818C22.6065 11.4943 22.6761 11.3338 22.8153 11.2003C22.9574 11.0668 23.1264 11 23.3224 11C23.5185 11 23.6861 11.0668 23.8253 11.2003C23.9673 11.3338 24.0384 11.4943 24.0384 11.6818C24.0384 11.8693 23.9673 12.0298 23.8253 12.1634C23.6861 12.2969 23.5185 12.3636 23.3224 12.3636ZM28.5053 13.4545V14.3068H25.1133V13.4545H28.5053ZM26.1019 11.8864H27.1076V18.125C27.1076 18.4091 27.1488 18.6222 27.2312 18.7642C27.3164 18.9034 27.4244 18.9972 27.555 19.0455C27.6886 19.0909 27.8292 19.1136 27.9769 19.1136C28.0877 19.1136 28.1786 19.108 28.2496 19.0966C28.3207 19.0824 28.3775 19.071 28.4201 19.0625L28.6246 19.9659C28.5565 19.9915 28.4613 20.017 28.3391 20.0426C28.217 20.071 28.0621 20.0852 27.8746 20.0852C27.5906 20.0852 27.3121 20.0241 27.0394 19.902C26.7695 19.7798 26.5451 19.5938 26.3661 19.3438C26.19 19.0938 26.1019 18.7784 26.1019 18.3977V11.8864ZM32.6921 20.1364C32.0614 20.1364 31.5174 19.9972 31.06 19.7188C30.6055 19.4375 30.2546 19.0455 30.0075 18.5426C29.7631 18.0369 29.641 17.4489 29.641 16.7784C29.641 16.108 29.7631 15.517 30.0075 15.0057C30.2546 14.4915 30.5984 14.0909 31.0387 13.804C31.4819 13.5142 31.9989 13.3693 32.5898 13.3693C32.9308 13.3693 33.2674 13.4261 33.5998 13.5398C33.9322 13.6534 34.2347 13.8381 34.5075 14.0938C34.7802 14.3466 34.9975 14.6818 35.1594 15.0994C35.3214 15.517 35.4023 16.0312 35.4023 16.642V17.0682H30.3569V16.1989H34.3796C34.3796 15.8295 34.3058 15.5 34.158 15.2102C34.0131 14.9205 33.8058 14.6918 33.5359 14.5241C33.2688 14.3565 32.9535 14.2727 32.5898 14.2727C32.1893 14.2727 31.8427 14.3722 31.5501 14.571C31.2603 14.767 31.0373 15.0227 30.881 15.3381C30.7248 15.6534 30.6467 15.9915 30.6467 16.3523V16.9318C30.6467 17.4261 30.7319 17.8452 30.9023 18.1889C31.0756 18.5298 31.3157 18.7898 31.6225 18.9688C31.9293 19.1449 32.2859 19.233 32.6921 19.233C32.9563 19.233 33.195 19.196 33.408 19.1222C33.6239 19.0455 33.81 18.9318 33.9663 18.7812C34.1225 18.6278 34.2433 18.4375 34.3285 18.2102L35.3001 18.483C35.1978 18.8125 35.0259 19.1023 34.7844 19.3523C34.543 19.5994 34.2447 19.7926 33.8896 19.9318C33.5344 20.0682 33.1353 20.1364 32.6921 20.1364ZM36.9322 20V13.4545H37.9038V14.4432H37.9719C38.0913 14.1193 38.3072 13.8565 38.6197 13.6548C38.9322 13.4531 39.2844 13.3523 39.6765 13.3523C39.7504 13.3523 39.8427 13.3537 39.9535 13.3565C40.0643 13.3594 40.1481 13.3636 40.2049 13.3693V14.392C40.1708 14.3835 40.0927 14.3707 39.9705 14.3537C39.8512 14.3338 39.7248 14.3239 39.5913 14.3239C39.2731 14.3239 38.989 14.3906 38.739 14.5241C38.4918 14.6548 38.2958 14.8366 38.1509 15.0696C38.0089 15.2997 37.9379 15.5625 37.9379 15.858V20H36.9322ZM44.9084 20V11.2727H50.1413V12.2102H45.9652V15.1591H49.7493V16.0966H45.9652V20H44.9084ZM52.8207 11.2727V20H51.815V11.2727H52.8207ZM54.6626 20V13.4545H55.6683V20H54.6626ZM55.174 12.3636C54.978 12.3636 54.8089 12.2969 54.6669 12.1634C54.5277 12.0298 54.4581 11.8693 54.4581 11.6818C54.4581 11.4943 54.5277 11.3338 54.6669 11.2003C54.8089 11.0668 54.978 11 55.174 11C55.37 11 55.5376 11.0668 55.6768 11.2003C55.8189 11.3338 55.8899 11.4943 55.8899 11.6818C55.8899 11.8693 55.8189 12.0298 55.6768 12.1634C55.5376 12.2969 55.37 12.3636 55.174 12.3636ZM60.1694 20.1364C59.5558 20.1364 59.0273 19.9915 58.5842 19.7017C58.141 19.4119 57.8001 19.0128 57.5614 18.5043C57.3228 17.9957 57.2035 17.4148 57.2035 16.7614C57.2035 16.0966 57.3256 15.5099 57.57 15.0014C57.8171 14.4901 58.1609 14.0909 58.6012 13.804C59.0444 13.5142 59.5614 13.3693 60.1523 13.3693C60.6126 13.3693 61.0273 13.4545 61.3967 13.625C61.766 13.7955 62.0685 14.0341 62.3043 14.3409C62.5401 14.6477 62.6864 15.0057 62.7433 15.4148H61.7376C61.6609 15.1165 61.4904 14.8523 61.2262 14.6222C60.9648 14.3892 60.6126 14.2727 60.1694 14.2727C59.7773 14.2727 59.4336 14.375 59.1381 14.5795C58.8455 14.7812 58.6168 15.0668 58.4521 15.4361C58.2901 15.8026 58.2092 16.233 58.2092 16.7273C58.2092 17.233 58.2887 17.6733 58.4478 18.0483C58.6097 18.4233 58.837 18.7145 59.1296 18.9219C59.4251 19.1293 59.7717 19.233 60.1694 19.233C60.4308 19.233 60.668 19.1875 60.881 19.0966C61.0941 19.0057 61.2745 18.875 61.4222 18.7045C61.57 18.5341 61.6751 18.3295 61.7376 18.0909H62.7433C62.6864 18.4773 62.5458 18.8253 62.3214 19.1349C62.0998 19.4418 61.8058 19.6861 61.4393 19.8679C61.0756 20.0469 60.6523 20.1364 60.1694 20.1364ZM65.1509 17.6136L65.1339 16.3693H65.3384L68.2021 13.4545H69.4464L66.3952 16.5398H66.31L65.1509 17.6136ZM64.2134 20V11.2727H65.2191V20H64.2134ZM68.3725 20L65.8157 16.7614L66.5316 16.0625L69.6509 20H68.3725ZM73.2156 20.1364C72.5849 20.1364 72.0408 19.9972 71.5835 19.7188C71.1289 19.4375 70.7781 19.0455 70.5309 18.5426C70.2866 18.0369 70.1644 17.4489 70.1644 16.7784C70.1644 16.108 70.2866 15.517 70.5309 15.0057C70.7781 14.4915 71.1218 14.0909 71.5621 13.804C72.0053 13.5142 72.5224 13.3693 73.1133 13.3693C73.4542 13.3693 73.7908 13.4261 74.1232 13.5398C74.4556 13.6534 74.7582 13.8381 75.0309 14.0938C75.3036 14.3466 75.521 14.6818 75.6829 15.0994C75.8448 15.517 75.9258 16.0312 75.9258 16.642V17.0682H70.8803V16.1989H74.9031C74.9031 15.8295 74.8292 15.5 74.6815 15.2102C74.5366 14.9205 74.3292 14.6918 74.0593 14.5241C73.7923 14.3565 73.4769 14.2727 73.1133 14.2727C72.7127 14.2727 72.3661 14.3722 72.0735 14.571C71.7837 14.767 71.5607 15.0227 71.4045 15.3381C71.2482 15.6534 71.1701 15.9915 71.1701 16.3523V16.9318C71.1701 17.4261 71.2553 17.8452 71.4258 18.1889C71.5991 18.5298 71.8391 18.7898 72.146 18.9688C72.4528 19.1449 72.8093 19.233 73.2156 19.233C73.4798 19.233 73.7184 19.196 73.9315 19.1222C74.1474 19.0455 74.3335 18.9318 74.4897 18.7812C74.646 18.6278 74.7667 18.4375 74.8519 18.2102L75.8235 18.483C75.7212 18.8125 75.5494 19.1023 75.3079 19.3523C75.0664 19.5994 74.7681 19.7926 74.413 19.9318C74.0579 20.0682 73.6587 20.1364 73.2156 20.1364ZM77.4556 20V13.4545H78.4272V14.4432H78.4954C78.6147 14.1193 78.8306 13.8565 79.1431 13.6548C79.4556 13.4531 79.8079 13.3523 80.1999 13.3523C80.2738 13.3523 80.3661 13.3537 80.4769 13.3565C80.5877 13.3594 80.6715 13.3636 80.7283 13.3693V14.392C80.6942 14.3835 80.6161 14.3707 80.494 14.3537C80.3746 14.3338 80.2482 14.3239 80.1147 14.3239C79.7965 14.3239 79.5124 14.3906 79.2624 14.5241C79.0153 14.6548 78.8192 14.8366 78.6744 15.0696C78.5323 15.2997 78.4613 15.5625 78.4613 15.858V20H77.4556Z" fill="#0041C4"/>
<path d="M91 25H111" stroke="black" stroke-linecap="round"/>
<path d="M111 25H131" stroke="black" stroke-linecap="round"/>
<path d="M131 25H134L140 5H151" stroke="black" stroke-linecap="round"/>
<path d="M151 5H171" stroke="black" stroke-linecap="round"/>
<path d="M171 5H191" stroke="black" stroke-linecap="round"/>
<path d="M191 5H211" stroke="black" stroke-linecap="round"/>
<path d="M211 5H231" stroke="black" stroke-linecap="round"/>
<path d="M231 5H251" stroke="black" stroke-linecap="round"/>
<path d="M251 5H271" stroke="black" stroke-linecap="round"/>
<path d="M271 5H291" stroke="black" stroke-linecap="round"/>
<path d="M291 5H294L300 25H311" stroke="black" stroke-linecap="round"/>
<path d="M311 25H331" stroke="black" stroke-linecap="round"/>
<path d="M331 25H351" stroke="black" stroke-linecap="round"/>
<path d="M351 25H371" stroke="black" stroke-linecap="round"/>
<path d="M371 25H391" stroke="black" stroke-linecap="round"/>
<path d="M391 25H411" stroke="black" stroke-linecap="round"/>
<path d="M1.27947 50V41.2727H4.22834C4.91016 41.2727 5.46982 41.3892 5.90732 41.6222C6.34482 41.8523 6.66868 42.169 6.87891 42.5724C7.08913 42.9759 7.19425 43.4347 7.19425 43.9489C7.19425 44.4631 7.08913 44.919 6.87891 45.3168C6.66868 45.7145 6.34624 46.027 5.91158 46.2543C5.47692 46.4787 4.92152 46.5909 4.24538 46.5909H1.85902V45.6364H4.21129C4.6772 45.6364 5.0522 45.5682 5.33629 45.4318C5.62322 45.2955 5.83061 45.1023 5.95845 44.8523C6.08913 44.5994 6.15447 44.2983 6.15447 43.9489C6.15447 43.5994 6.08913 43.294 5.95845 43.0327C5.82777 42.7713 5.61896 42.5696 5.33203 42.4276C5.0451 42.2827 4.66584 42.2102 4.19425 42.2102H2.33629V50H1.27947ZM5.38743 46.0795L7.53516 50H6.30788L4.19425 46.0795H5.38743ZM11.4929 50.1364C10.8622 50.1364 10.3182 49.9972 9.8608 49.7188C9.40625 49.4375 9.0554 49.0455 8.80824 48.5426C8.56392 48.0369 8.44176 47.4489 8.44176 46.7784C8.44176 46.108 8.56392 45.517 8.80824 45.0057C9.0554 44.4915 9.39915 44.0909 9.83949 43.804C10.2827 43.5142 10.7997 43.3693 11.3906 43.3693C11.7315 43.3693 12.0682 43.4261 12.4006 43.5398C12.733 43.6534 13.0355 43.8381 13.3082 44.0938C13.581 44.3466 13.7983 44.6818 13.9602 45.0994C14.1222 45.517 14.2031 46.0312 14.2031 46.642V47.0682H9.15767V46.1989H13.1804C13.1804 45.8295 13.1065 45.5 12.9588 45.2102C12.8139 44.9205 12.6065 44.6918 12.3366 44.5241C12.0696 44.3565 11.7543 44.2727 11.3906 44.2727C10.9901 44.2727 10.6435 44.3722 10.3509 44.571C10.0611 44.767 9.83807 45.0227 9.68182 45.3381C9.52557 45.6534 9.44744 45.9915 9.44744 46.3523V46.9318C9.44744 47.4261 9.53267 47.8452 9.70312 48.1889C9.87642 48.5298 10.1165 48.7898 10.4233 48.9688C10.7301 49.1449 11.0866 49.233 11.4929 49.233C11.7571 49.233 11.9957 49.196 12.2088 49.1222C12.4247 49.0455 12.6108 48.9318 12.767 48.7812C12.9233 48.6278 13.044 48.4375 13.1293 48.2102L14.1009 48.483C13.9986 48.8125 13.8267 49.1023 13.5852 49.3523C13.3438 49.5994 13.0455 49.7926 12.6903 49.9318C12.3352 50.0682 11.9361 50.1364 11.4929 50.1364ZM17.6591 50.1534C17.2443 50.1534 16.8679 50.0753 16.5298 49.919C16.1918 49.7599 15.9233 49.5312 15.7244 49.233C15.5256 48.9318 15.4261 48.5682 15.4261 48.142C15.4261 47.767 15.5 47.4631 15.6477 47.2301C15.7955 46.9943 15.9929 46.8097 16.2401 46.6761C16.4872 46.5426 16.7599 46.4432 17.0582 46.3778C17.3594 46.3097 17.6619 46.2557 17.9659 46.2159C18.3636 46.1648 18.6861 46.1264 18.9332 46.1009C19.1832 46.0724 19.3651 46.0256 19.4787 45.9602C19.5952 45.8949 19.6534 45.7812 19.6534 45.6193V45.5852C19.6534 45.1648 19.5384 44.8381 19.3082 44.6051C19.081 44.3722 18.7358 44.2557 18.2727 44.2557C17.7926 44.2557 17.4162 44.3608 17.1435 44.571C16.8707 44.7812 16.679 45.0057 16.5682 45.2443L15.6136 44.9034C15.7841 44.5057 16.0114 44.196 16.2955 43.9744C16.5824 43.75 16.8949 43.5937 17.233 43.5057C17.5739 43.4148 17.9091 43.3693 18.2386 43.3693C18.4489 43.3693 18.6903 43.3949 18.9631 43.446C19.2386 43.4943 19.5043 43.5952 19.7599 43.7486C20.0185 43.902 20.233 44.1335 20.4034 44.4432C20.5739 44.7528 20.6591 45.1676 20.6591 45.6875V50H19.6534V49.1136H19.6023C19.5341 49.2557 19.4205 49.4077 19.2614 49.5696C19.1023 49.7315 18.8906 49.8693 18.6264 49.983C18.3622 50.0966 18.0398 50.1534 17.6591 50.1534ZM17.8125 49.25C18.2102 49.25 18.5455 49.1719 18.8182 49.0156C19.0938 48.8594 19.3011 48.6577 19.4403 48.4105C19.5824 48.1634 19.6534 47.9034 19.6534 47.6307V46.7102C19.6108 46.7614 19.517 46.8082 19.3722 46.8509C19.2301 46.8906 19.0653 46.9261 18.8778 46.9574C18.6932 46.9858 18.5128 47.0114 18.3366 47.0341C18.1634 47.054 18.0227 47.071 17.9148 47.0852C17.6534 47.1193 17.4091 47.1747 17.1818 47.2514C16.9574 47.3253 16.7756 47.4375 16.6364 47.5881C16.5 47.7358 16.4318 47.9375 16.4318 48.1932C16.4318 48.5426 16.5611 48.8068 16.8196 48.9858C17.081 49.1619 17.4119 49.25 17.8125 49.25ZM24.9663 50.1364C24.4208 50.1364 23.9393 49.9986 23.5217 49.723C23.104 49.4446 22.7773 49.0526 22.5415 48.5469C22.3058 48.0384 22.1879 47.4375 22.1879 46.7443C22.1879 46.0568 22.3058 45.4602 22.5415 44.9545C22.7773 44.4489 23.1055 44.0582 23.5259 43.7827C23.9464 43.5071 24.4322 43.3693 24.9833 43.3693C25.4094 43.3693 25.7461 43.4403 25.9933 43.5824C26.2433 43.7216 26.4336 43.8807 26.5643 44.0597C26.6978 44.2358 26.8015 44.3807 26.8754 44.4943H26.9606V41.2727H27.9663V50H26.9947V48.9943H26.8754C26.8015 49.1136 26.6964 49.2642 26.56 49.446C26.4237 49.625 26.229 49.7855 25.9762 49.9276C25.7234 50.0668 25.3867 50.1364 24.9663 50.1364ZM25.1026 49.233C25.506 49.233 25.8469 49.1278 26.1254 48.9176C26.4038 48.7045 26.6154 48.4105 26.7603 48.0355C26.9052 47.6577 26.9776 47.2216 26.9776 46.7273C26.9776 46.2386 26.9066 45.8111 26.7646 45.4446C26.6225 45.0753 26.4123 44.7884 26.1339 44.5838C25.8555 44.3764 25.5117 44.2727 25.1026 44.2727C24.6765 44.2727 24.3214 44.3821 24.0373 44.6009C23.756 44.8168 23.5444 45.1108 23.4023 45.483C23.2631 45.8523 23.1935 46.267 23.1935 46.7273C23.1935 47.1932 23.2646 47.6165 23.4066 47.9972C23.5515 48.375 23.7646 48.6761 24.0458 48.9006C24.3299 49.1222 24.6822 49.233 25.1026 49.233ZM32.6921 50.1364C32.0614 50.1364 31.5174 49.9972 31.06 49.7188C30.6055 49.4375 30.2546 49.0455 30.0075 48.5426C29.7631 48.0369 29.641 47.4489 29.641 46.7784C29.641 46.108 29.7631 45.517 30.0075 45.0057C30.2546 44.4915 30.5984 44.0909 31.0387 43.804C31.4819 43.5142 31.9989 43.3693 32.5898 43.3693C32.9308 43.3693 33.2674 43.4261 33.5998 43.5398C33.9322 43.6534 34.2347 43.8381 34.5075 44.0938C34.7802 44.3466 34.9975 44.6818 35.1594 45.0994C35.3214 45.517 35.4023 46.0312 35.4023 46.642V47.0682H30.3569V46.1989H34.3796C34.3796 45.8295 34.3058 45.5 34.158 45.2102C34.0131 44.9205 33.8058 44.6918 33.5359 44.5241C33.2688 44.3565 32.9535 44.2727 32.5898 44.2727C32.1893 44.2727 31.8427 44.3722 31.5501 44.571C31.2603 44.767 31.0373 45.0227 30.881 45.3381C30.7248 45.6534 30.6467 45.9915 30.6467 46.3523V46.9318C30.6467 47.4261 30.7319 47.8452 30.9023 48.1889C31.0756 48.5298 31.3157 48.7898 31.6225 48.9688C31.9293 49.1449 32.2859 49.233 32.6921 49.233C32.9563 49.233 33.195 49.196 33.408 49.1222C33.6239 49.0455 33.81 48.9318 33.9663 48.7812C34.1225 48.6278 34.2433 48.4375 34.3285 48.2102L35.3001 48.483C35.1978 48.8125 35.0259 49.1023 34.7844 49.3523C34.543 49.5994 34.2447 49.7926 33.8896 49.9318C33.5344 50.0682 33.1353 50.1364 32.6921 50.1364ZM36.9322 50V43.4545H37.9038V44.4432H37.9719C38.0913 44.1193 38.3072 43.8565 38.6197 43.6548C38.9322 43.4531 39.2844 43.3523 39.6765 43.3523C39.7504 43.3523 39.8427 43.3537 39.9535 43.3565C40.0643 43.3594 40.1481 43.3636 40.2049 43.3693V44.392C40.1708 44.3835 40.0927 44.3707 39.9705 44.3537C39.8512 44.3338 39.7248 44.3239 39.5913 44.3239C39.2731 44.3239 38.989 44.3906 38.739 44.5241C38.4918 44.6548 38.2958 44.8366 38.1509 45.0696C38.0089 45.2997 37.9379 45.5625 37.9379 45.858V50H36.9322ZM44.9084 50V41.2727H50.1413V42.2102H45.9652V45.1591H49.7493V46.0966H45.9652V50H44.9084ZM52.8207 41.2727V50H51.815V41.2727H52.8207ZM54.6626 50V43.4545H55.6683V50H54.6626ZM55.174 42.3636C54.978 42.3636 54.8089 42.2969 54.6669 42.1634C54.5277 42.0298 54.4581 41.8693 54.4581 41.6818C54.4581 41.4943 54.5277 41.3338 54.6669 41.2003C54.8089 41.0668 54.978 41 55.174 41C55.37 41 55.5376 41.0668 55.6768 41.2003C55.8189 41.3338 55.8899 41.4943 55.8899 41.6818C55.8899 41.8693 55.8189 42.0298 55.6768 42.1634C55.5376 42.2969 55.37 42.3636 55.174 42.3636ZM60.1694 50.1364C59.5558 50.1364 59.0273 49.9915 58.5842 49.7017C58.141 49.4119 57.8001 49.0128 57.5614 48.5043C57.3228 47.9957 57.2035 47.4148 57.2035 46.7614C57.2035 46.0966 57.3256 45.5099 57.57 45.0014C57.8171 44.4901 58.1609 44.0909 58.6012 43.804C59.0444 43.5142 59.5614 43.3693 60.1523 43.3693C60.6126 43.3693 61.0273 43.4545 61.3967 43.625C61.766 43.7955 62.0685 44.0341 62.3043 44.3409C62.5401 44.6477 62.6864 45.0057 62.7433 45.4148H61.7376C61.6609 45.1165 61.4904 44.8523 61.2262 44.6222C60.9648 44.3892 60.6126 44.2727 60.1694 44.2727C59.7773 44.2727 59.4336 44.375 59.1381 44.5795C58.8455 44.7812 58.6168 45.0668 58.4521 45.4361C58.2901 45.8026 58.2092 46.233 58.2092 46.7273C58.2092 47.233 58.2887 47.6733 58.4478 48.0483C58.6097 48.4233 58.837 48.7145 59.1296 48.9219C59.4251 49.1293 59.7717 49.233 60.1694 49.233C60.4308 49.233 60.668 49.1875 60.881 49.0966C61.0941 49.0057 61.2745 48.875 61.4222 48.7045C61.57 48.5341 61.6751 48.3295 61.7376 48.0909H62.7433C62.6864 48.4773 62.5458 48.8253 62.3214 49.1349C62.0998 49.4418 61.8058 49.6861 61.4393 49.8679C61.0756 50.0469 60.6523 50.1364 60.1694 50.1364ZM65.1509 47.6136L65.1339 46.3693H65.3384L68.2021 43.4545H69.4464L66.3952 46.5398H66.31L65.1509 47.6136ZM64.2134 50V41.2727H65.2191V50H64.2134ZM68.3725 50L65.8157 46.7614L66.5316 46.0625L69.6509 50H68.3725ZM73.2156 50.1364C72.5849 50.1364 72.0408 49.9972 71.5835 49.7188C71.1289 49.4375 70.7781 49.0455 70.5309 48.5426C70.2866 48.0369 70.1644 47.4489 70.1644 46.7784C70.1644 46.108 70.2866 45.517 70.5309 45.0057C70.7781 44.4915 71.1218 44.0909 71.5621 43.804C72.0053 43.5142 72.5224 43.3693 73.1133 43.3693C73.4542 43.3693 73.7908 43.4261 74.1232 43.5398C74.4556 43.6534 74.7582 43.8381 75.0309 44.0938C75.3036 44.3466 75.521 44.6818 75.6829 45.0994C75.8448 45.517 75.9258 46.0312 75.9258 46.642V47.0682H70.8803V46.1989H74.9031C74.9031 45.8295 74.8292 45.5 74.6815 45.2102C74.5366 44.9205 74.3292 44.6918 74.0593 44.5241C73.7923 44.3565 73.4769 44.2727 73.1133 44.2727C72.7127 44.2727 72.3661 44.3722 72.0735 44.571C71.7837 44.767 71.5607 45.0227 71.4045 45.3381C71.2482 45.6534 71.1701 45.9915 71.1701 46.3523V46.9318C71.1701 47.4261 71.2553 47.8452 71.4258 48.1889C71.5991 48.5298 71.8391 48.7898 72.146 48.9688C72.4528 49.1449 72.8093 49.233 73.2156 49.233C73.4798 49.233 73.7184 49.196 73.9315 49.1222C74.1474 49.0455 74.3335 48.9318 74.4897 48.7812C74.646 48.6278 74.7667 48.4375 74.8519 48.2102L75.8235 48.483C75.7212 48.8125 75.5494 49.1023 75.3079 49.3523C75.0664 49.5994 74.7681 49.7926 74.413 49.9318C74.0579 50.0682 73.6587 50.1364 73.2156 50.1364ZM77.4556 50V43.4545H78.4272V44.4432H78.4954C78.6147 44.1193 78.8306 43.8565 79.1431 43.6548C79.4556 43.4531 79.8079 43.3523 80.1999 43.3523C80.2738 43.3523 80.3661 43.3537 80.4769 43.3565C80.5877 43.3594 80.6715 43.3636 80.7283 43.3693V44.392C80.6942 44.3835 80.6161 44.3707 80.494 44.3537C80.3746 44.3338 80.2482 44.3239 80.1147 44.3239C79.7965 44.3239 79.5124 44.3906 79.2624 44.5241C79.0153 44.6548 78.8192 44.8366 78.6744 45.0696C78.5323 45.2997 78.4613 45.5625 78.4613 45.858V50H77.4556Z" fill="#0041C4"/>
<path d="M91 55H111" stroke="black" stroke-linecap="round"/>
<path d="M111 55H131" stroke="black" stroke-linecap="round"/>
<path d="M131 55H151" stroke="black" stroke-linecap="round"/>
<path d="M151 55H171" stroke="black" stroke-linecap="round"/>
<path d="M171 55H191" stroke="black" stroke-linecap="round"/>
<path d="M191 55H211" stroke="black" stroke-linecap="round"/>
<path d="M211 55H214L220 35H231" stroke="black" stroke-linecap="round"/>
<path d="M231 35H251" stroke="black" stroke-linecap="round"/>
<path d="M251 35H271" stroke="black" stroke-linecap="round"/>
<path d="M271 35H291" stroke="black" stroke-linecap="round"/>
<path d="M291 35H311" stroke="black" stroke-linecap="round"/>
<path d="M311 35H331" stroke="black" stroke-linecap="round"/>
<path d="M331 35H351" stroke="black" stroke-linecap="round"/>
<path d="M351 35H371" stroke="black" stroke-linecap="round"/>
<path d="M371 35H374L380 55H391" stroke="black" stroke-linecap="round"/>
<path d="M391 55H411" stroke="black" stroke-linecap="round"/>
<path d="M58.2422 110H55.549V101.273H58.3615C59.2081 101.273 59.9325 101.447 60.5348 101.797C61.1371 102.143 61.5987 102.642 61.9197 103.293C62.2408 103.94 62.4013 104.716 62.4013 105.619C62.4013 106.528 62.2393 107.311 61.9155 107.967C61.5916 108.621 61.12 109.124 60.5007 109.476C59.8814 109.825 59.1286 110 58.2422 110ZM56.6058 109.062H58.174C58.8956 109.062 59.4936 108.923 59.968 108.645C60.4425 108.366 60.7962 107.97 61.0291 107.456C61.2621 106.942 61.3786 106.33 61.3786 105.619C61.3786 104.915 61.2635 104.308 61.0334 103.8C60.8033 103.288 60.4595 102.896 60.0021 102.624C59.5447 102.348 58.9751 102.21 58.2933 102.21H56.6058V109.062ZM65.9638 110.153C65.549 110.153 65.1726 110.075 64.8345 109.919C64.4964 109.76 64.228 109.531 64.0291 109.233C63.8303 108.932 63.7308 108.568 63.7308 108.142C63.7308 107.767 63.8047 107.463 63.9524 107.23C64.1001 106.994 64.2976 106.81 64.5447 106.676C64.7919 106.543 65.0646 106.443 65.3629 106.378C65.6641 106.31 65.9666 106.256 66.2706 106.216C66.6683 106.165 66.9908 106.126 67.2379 106.101C67.4879 106.072 67.6697 106.026 67.7834 105.96C67.8999 105.895 67.9581 105.781 67.9581 105.619V105.585C67.9581 105.165 67.843 104.838 67.6129 104.605C67.3857 104.372 67.0405 104.256 66.5774 104.256C66.0973 104.256 65.7209 104.361 65.4482 104.571C65.1754 104.781 64.9837 105.006 64.8729 105.244L63.9183 104.903C64.0888 104.506 64.3161 104.196 64.6001 103.974C64.8871 103.75 65.1996 103.594 65.5376 103.506C65.8786 103.415 66.2138 103.369 66.5433 103.369C66.7536 103.369 66.995 103.395 67.2678 103.446C67.5433 103.494 67.8089 103.595 68.0646 103.749C68.3232 103.902 68.5376 104.134 68.7081 104.443C68.8786 104.753 68.9638 105.168 68.9638 105.688V110H67.9581V109.114H67.907C67.8388 109.256 67.7251 109.408 67.5661 109.57C67.407 109.732 67.1953 109.869 66.9311 109.983C66.6669 110.097 66.3445 110.153 65.9638 110.153ZM66.1172 109.25C66.5149 109.25 66.8501 109.172 67.1229 109.016C67.3984 108.859 67.6058 108.658 67.745 108.411C67.8871 108.163 67.9581 107.903 67.9581 107.631V106.71C67.9155 106.761 67.8217 106.808 67.6768 106.851C67.5348 106.891 67.37 106.926 67.1825 106.957C66.9979 106.986 66.8175 107.011 66.6413 107.034C66.468 107.054 66.3274 107.071 66.2195 107.085C65.9581 107.119 65.7138 107.175 65.4865 107.251C65.2621 107.325 65.0803 107.437 64.9411 107.588C64.8047 107.736 64.7365 107.937 64.7365 108.193C64.7365 108.543 64.8658 108.807 65.1243 108.986C65.3857 109.162 65.7166 109.25 66.1172 109.25ZM73.646 103.455V104.307H70.2539V103.455H73.646ZM71.2425 101.886H72.2482V108.125C72.2482 108.409 72.2894 108.622 72.3718 108.764C72.457 108.903 72.565 108.997 72.6957 109.045C72.8292 109.091 72.9698 109.114 73.1175 109.114C73.2283 109.114 73.3192 109.108 73.3903 109.097C73.4613 109.082 73.5181 109.071 73.5607 109.062L73.7653 109.966C73.6971 109.991 73.6019 110.017 73.4798 110.043C73.3576 110.071 73.2028 110.085 73.0153 110.085C72.7312 110.085 72.4528 110.024 72.18 109.902C71.9102 109.78 71.6857 109.594 71.5067 109.344C71.3306 109.094 71.2425 108.778 71.2425 108.398V101.886ZM77.0849 110.153C76.6701 110.153 76.2937 110.075 75.9556 109.919C75.6175 109.76 75.3491 109.531 75.1502 109.233C74.9513 108.932 74.8519 108.568 74.8519 108.142C74.8519 107.767 74.9258 107.463 75.0735 107.23C75.2212 106.994 75.4187 106.81 75.6658 106.676C75.913 106.543 76.1857 106.443 76.484 106.378C76.7852 106.31 77.0877 106.256 77.3917 106.216C77.7894 106.165 78.1119 106.126 78.359 106.101C78.609 106.072 78.7908 106.026 78.9045 105.96C79.021 105.895 79.0792 105.781 79.0792 105.619V105.585C79.0792 105.165 78.9641 104.838 78.734 104.605C78.5067 104.372 78.1616 104.256 77.6985 104.256C77.2184 104.256 76.842 104.361 76.5692 104.571C76.2965 104.781 76.1048 105.006 75.994 105.244L75.0394 104.903C75.2099 104.506 75.4371 104.196 75.7212 103.974C76.0082 103.75 76.3207 103.594 76.6587 103.506C76.9996 103.415 77.3349 103.369 77.6644 103.369C77.8746 103.369 78.1161 103.395 78.3888 103.446C78.6644 103.494 78.93 103.595 79.1857 103.749C79.4442 103.902 79.6587 104.134 79.8292 104.443C79.9996 104.753 80.0849 105.168 80.0849 105.688V110H79.0792V109.114H79.0281C78.9599 109.256 78.8462 109.408 78.6871 109.57C78.5281 109.732 78.3164 109.869 78.0522 109.983C77.788 110.097 77.4656 110.153 77.0849 110.153ZM77.2383 109.25C77.636 109.25 77.9712 109.172 78.244 109.016C78.5195 108.859 78.7269 108.658 78.8661 108.411C79.0082 108.163 79.0792 107.903 79.0792 107.631V106.71C79.0366 106.761 78.9428 106.808 78.7979 106.851C78.6559 106.891 78.4911 106.926 78.3036 106.957C78.119 106.986 77.9386 107.011 77.7624 107.034C77.5891 107.054 77.4485 107.071 77.3406 107.085C77.0792 107.119 76.8349 107.175 76.6076 107.251C76.3832 107.325 76.2013 107.437 76.0621 107.588C75.9258 107.736 75.8576 107.937 75.8576 108.193C75.8576 108.543 75.9869 108.807 76.2454 108.986C76.5067 109.162 76.8377 109.25 77.2383 109.25Z" fill="#0041C4"/>
<path d="M91 115H111" stroke="black" stroke-linecap="round"/>
<path d="M91 95H111" stroke="black" stroke-linecap="round"/>
<path d="M91 100L96 95" stroke="black" stroke-width="0.5" stroke-linecap="round"/>
<path d="M91 105L101 95" stroke="black" stroke-width="0.5" stroke-linecap="round"/>
<path d="M91 110L106 95" stroke="black" stroke-width="0.5" stroke-linecap="round"/>
<path d="M91 115L111 95" stroke="black" stroke-width="0.5" stroke-linecap="round"/>
<path d="M96 115L111 100" stroke="black" stroke-width="0.5" stroke-linecap="round"/>
<path d="M101 115L111 105" stroke="black" stroke-width="0.5" stroke-linecap="round"/>
<path d="M106 115L111 110" stroke="black" stroke-width="0.5" stroke-linecap="round"/>
<path d="M111 115H131" stroke="black" stroke-linecap="round"/>
<path d="M111 95H131" stroke="black" stroke-linecap="round"/>
<path d="M111 100L116 95" stroke="black" stroke-width="0.5" stroke-linecap="round"/>
<path d="M111 105L121 95" stroke="black" stroke-width="0.5" stroke-linecap="round"/>
<path d="M111 110L126 95" stroke="black" stroke-width="0.5" stroke-linecap="round"/>
<path d="M111 115L131 95" stroke="black" stroke-width="0.5" stroke-linecap="round"/>
<path d="M116 115L131 100" stroke="black" stroke-width="0.5" stroke-linecap="round"/>
<path d="M121 115L131 105" stroke="black" stroke-width="0.5" stroke-linecap="round"/>
<path d="M126 115L131 110" stroke="black" stroke-width="0.5" stroke-linecap="round"/>
<path d="M140 95H151V115H140L137 105L140 95Z" fill="white"/>
<path d="M131 115H134L140 95H151" stroke="black" stroke-linecap="round"/>
<path d="M131 95H134L140 115H151" stroke="black" stroke-linecap="round"/>
<path d="M131 100L134.5 96.5" stroke="black" stroke-width="0.5" stroke-linecap="round"/>
<path d="M131 105L135.5 100.5" stroke="black" stroke-width="0.5" stroke-linecap="round"/>
<path d="M131 110L137 104" stroke="black" stroke-width="0.5" stroke-linecap="round"/>
<path d="M131 115L135 111" stroke="black" stroke-width="0.5" stroke-linecap="round"/>
<path d="M171 115H151V95H171" fill="white"/>
<path d="M151 115H171" stroke="black" stroke-linecap="round"/>
<path d="M151 95H171" stroke="black" stroke-linecap="round"/>
<path d="M191 115H171V95H191" fill="white"/>
<path d="M171 115H191" stroke="black" stroke-linecap="round"/>
<path d="M171 95H191" stroke="black" stroke-linecap="round"/>
<path d="M211 115H191V95H211" fill="white"/>
<path d="M191 115H211" stroke="black" stroke-linecap="round"/>
<path d="M191 95H211" stroke="black" stroke-linecap="round"/>
<path d="M231 115H211V95H231" fill="white"/>
<path d="M211 115H231" stroke="black" stroke-linecap="round"/>
<path d="M211 95H231" stroke="black" stroke-linecap="round"/>
<path d="M251 115H231V95H251" fill="white"/>
<path d="M231 115H251" stroke="black" stroke-linecap="round"/>
<path d="M231 95H251" stroke="black" stroke-linecap="round"/>
<path d="M271 115H251V95H271" fill="white"/>
<path d="M251 115H271" stroke="black" stroke-linecap="round"/>
<path d="M251 95H271" stroke="black" stroke-linecap="round"/>
<path d="M291 115H271V95H291" fill="white"/>
<path d="M271 115H291" stroke="black" stroke-linecap="round"/>
<path d="M271 95H291" stroke="black" stroke-linecap="round"/>
<path d="M291 95V115H294L297 105L294 95" fill="white"/>
<path d="M291 95H294L300 115H311" stroke="black" stroke-linecap="round"/>
<path d="M291 115H294L300 95H311" stroke="black" stroke-linecap="round"/>
<path d="M311 110L306 115" stroke="black" stroke-width="0.5" stroke-linecap="round"/>
<path d="M311 105L301 115" stroke="black" stroke-width="0.5" stroke-linecap="round"/>
<path d="M311 100L299 112" stroke="black" stroke-width="0.5" stroke-linecap="round"/>
<path d="M311 95L298 108" stroke="black" stroke-width="0.5" stroke-linecap="round"/>
<path d="M306 95L298 103" stroke="black" stroke-width="0.5" stroke-linecap="round"/>
<path d="M301 95L300 96" stroke="black" stroke-width="0.5" stroke-linecap="round"/>
<path d="M311 115H331" stroke="black" stroke-linecap="round"/>
<path d="M311 95H331" stroke="black" stroke-linecap="round"/>
<path d="M311 100L316 95" stroke="black" stroke-width="0.5" stroke-linecap="round"/>
<path d="M311 105L321 95" stroke="black" stroke-width="0.5" stroke-linecap="round"/>
<path d="M311 110L326 95" stroke="black" stroke-width="0.5" stroke-linecap="round"/>
<path d="M311 115L331 95" stroke="black" stroke-width="0.5" stroke-linecap="round"/>
<path d="M316 115L331 100" stroke="black" stroke-width="0.5" stroke-linecap="round"/>
<path d="M321 115L331 105" stroke="black" stroke-width="0.5" stroke-linecap="round"/>
<path d="M326 115L331 110" stroke="black" stroke-width="0.5" stroke-linecap="round"/>
<path d="M331 115H351" stroke="black" stroke-linecap="round"/>
<path d="M331 95H351" stroke="black" stroke-linecap="round"/>
<path d="M331 100L336 95" stroke="black" stroke-width="0.5" stroke-linecap="round"/>
<path d="M331 105L341 95" stroke="black" stroke-width="0.5" stroke-linecap="round"/>
<path d="M331 110L346 95" stroke="black" stroke-width="0.5" stroke-linecap="round"/>
<path d="M331 115L351 95" stroke="black" stroke-width="0.5" stroke-linecap="round"/>
<path d="M336 115L351 100" stroke="black" stroke-width="0.5" stroke-linecap="round"/>
<path d="M341 115L351 105" stroke="black" stroke-width="0.5" stroke-linecap="round"/>
<path d="M346 115L351 110" stroke="black" stroke-width="0.5" stroke-linecap="round"/>
<path d="M351 115H371" stroke="black" stroke-linecap="round"/>
<path d="M351 95H371" stroke="black" stroke-linecap="round"/>
<path d="M351 100L356 95" stroke="black" stroke-width="0.5" stroke-linecap="round"/>
<path d="M351 105L361 95" stroke="black" stroke-width="0.5" stroke-linecap="round"/>
<path d="M351 110L366 95" stroke="black" stroke-width="0.5" stroke-linecap="round"/>
<path d="M351 115L371 95" stroke="black" stroke-width="0.5" stroke-linecap="round"/>
<path d="M356 115L371 100" stroke="black" stroke-width="0.5" stroke-linecap="round"/>
<path d="M361 115L371 105" stroke="black" stroke-width="0.5" stroke-linecap="round"/>
<path d="M366 115L371 110" stroke="black" stroke-width="0.5" stroke-linecap="round"/>
<path d="M371 115H391" stroke="black" stroke-linecap="round"/>
<path d="M371 95H391" stroke="black" stroke-linecap="round"/>
<path d="M371 100L376 95" stroke="black" stroke-width="0.5" stroke-linecap="round"/>
<path d="M371 105L381 95" stroke="black" stroke-width="0.5" stroke-linecap="round"/>
<path d="M371 110L386 95" stroke="black" stroke-width="0.5" stroke-linecap="round"/>
<path d="M371 115L391 95" stroke="black" stroke-width="0.5" stroke-linecap="round"/>
<path d="M376 115L391 100" stroke="black" stroke-width="0.5" stroke-linecap="round"/>
<path d="M381 115L391 105" stroke="black" stroke-width="0.5" stroke-linecap="round"/>
<path d="M386 115L391 110" stroke="black" stroke-width="0.5" stroke-linecap="round"/>
<path d="M391 115H411" stroke="black" stroke-linecap="round"/>
<path d="M391 95H411" stroke="black" stroke-linecap="round"/>
<path d="M391 100L396 95" stroke="black" stroke-width="0.5" stroke-linecap="round"/>
<path d="M391 105L401 95" stroke="black" stroke-width="0.5" stroke-linecap="round"/>
<path d="M391 110L406 95" stroke="black" stroke-width="0.5" stroke-linecap="round"/>
<path d="M391 115L411 95" stroke="black" stroke-width="0.5" stroke-linecap="round"/>
<path d="M396 115L411 100" stroke="black" stroke-width="0.5" stroke-linecap="round"/>
<path d="M401 115L411 105" stroke="black" stroke-width="0.5" stroke-linecap="round"/>
<path d="M406 115L411 110" stroke="black" stroke-width="0.5" stroke-linecap="round"/>
<path d="M205.178 110V101.273H208.229C208.837 101.273 209.338 101.378 209.733 101.588C210.128 101.795 210.422 102.075 210.615 102.428C210.809 102.777 210.905 103.165 210.905 103.591C210.905 103.966 210.838 104.276 210.705 104.52C210.574 104.764 210.401 104.957 210.185 105.099C209.972 105.241 209.74 105.347 209.49 105.415V105.5C209.757 105.517 210.026 105.611 210.296 105.781C210.566 105.952 210.792 106.196 210.973 106.514C211.155 106.832 211.246 107.222 211.246 107.682C211.246 108.119 211.147 108.513 210.948 108.862C210.749 109.212 210.435 109.489 210.006 109.693C209.577 109.898 209.019 110 208.331 110H205.178ZM206.235 109.062H208.331C209.022 109.062 209.512 108.929 209.801 108.662C210.094 108.392 210.24 108.065 210.24 107.682C210.24 107.386 210.165 107.114 210.015 106.864C209.864 106.611 209.65 106.409 209.371 106.259C209.093 106.105 208.763 106.028 208.382 106.028H206.235V109.062ZM206.235 105.108H208.195C208.513 105.108 208.8 105.045 209.056 104.92C209.314 104.795 209.519 104.619 209.669 104.392C209.823 104.165 209.9 103.898 209.9 103.591C209.9 103.207 209.766 102.882 209.499 102.615C209.232 102.345 208.809 102.21 208.229 102.21H206.235V105.108ZM213.494 112.455C213.324 112.455 213.172 112.44 213.038 112.412C212.904 112.386 212.812 112.361 212.761 112.335L213.017 111.449C213.261 111.511 213.477 111.534 213.664 111.517C213.852 111.5 214.018 111.416 214.163 111.266C214.311 111.118 214.446 110.878 214.568 110.545L214.755 110.034L212.335 103.455H213.426L215.233 108.67H215.301L217.108 103.455H218.199L215.42 110.955C215.295 111.293 215.14 111.572 214.956 111.794C214.771 112.018 214.556 112.185 214.312 112.293C214.071 112.401 213.798 112.455 213.494 112.455ZM222.373 103.455V104.307H218.98V103.455H222.373ZM219.969 101.886H220.975V108.125C220.975 108.409 221.016 108.622 221.098 108.764C221.184 108.903 221.292 108.997 221.422 109.045C221.556 109.091 221.696 109.114 221.844 109.114C221.955 109.114 222.046 109.108 222.117 109.097C222.188 109.082 222.245 109.071 222.287 109.062L222.492 109.966C222.424 109.991 222.328 110.017 222.206 110.043C222.084 110.071 221.929 110.085 221.742 110.085C221.458 110.085 221.179 110.024 220.907 109.902C220.637 109.78 220.412 109.594 220.233 109.344C220.057 109.094 219.969 108.778 219.969 108.398V101.886ZM226.559 110.136C225.929 110.136 225.385 109.997 224.927 109.719C224.473 109.438 224.122 109.045 223.875 108.543C223.63 108.037 223.508 107.449 223.508 106.778C223.508 106.108 223.63 105.517 223.875 105.006C224.122 104.491 224.466 104.091 224.906 103.804C225.349 103.514 225.866 103.369 226.457 103.369C226.798 103.369 227.135 103.426 227.467 103.54C227.799 103.653 228.102 103.838 228.375 104.094C228.647 104.347 228.865 104.682 229.027 105.099C229.189 105.517 229.27 106.031 229.27 106.642V107.068H224.224V106.199H228.247C228.247 105.83 228.173 105.5 228.025 105.21C227.88 104.92 227.673 104.692 227.403 104.524C227.136 104.357 226.821 104.273 226.457 104.273C226.056 104.273 225.71 104.372 225.417 104.571C225.127 104.767 224.904 105.023 224.748 105.338C224.592 105.653 224.514 105.991 224.514 106.352V106.932C224.514 107.426 224.599 107.845 224.77 108.189C224.943 108.53 225.183 108.79 225.49 108.969C225.797 109.145 226.153 109.233 226.559 109.233C226.824 109.233 227.062 109.196 227.275 109.122C227.491 109.045 227.677 108.932 227.833 108.781C227.99 108.628 228.11 108.437 228.196 108.21L229.167 108.483C229.065 108.812 228.893 109.102 228.652 109.352C228.41 109.599 228.112 109.793 227.757 109.932C227.402 110.068 227.002 110.136 226.559 110.136Z" fill="black"/>
<path d="M198 3H194C189 3 189 27 184 27H188C193 27 193 3 198 3Z" fill="white"/>
<path d="M184 27C189 27 189 3 194 3" stroke="black" stroke-linecap="round"/>
<path d="M188 27C193 27 193 3 198 3" stroke="black" stroke-linecap="round"/>
<path d="M278 3H274C269 3 269 27 264 27H268C273 27 273 3 278 3Z" fill="white"/>
<path d="M264 27C269 27 269 3 274 3" stroke="black" stroke-linecap="round"/>
<path d="M268 27C273 27 273 3 278 3" stroke="black" stroke-linecap="round"/>
<path d="M358 3H354C349 3 349 27 344 27H348C353 27 353 3 358 3Z" fill="white"/>
<path d="M344 27C349 27 349 3 354 3" stroke="black" stroke-linecap="round"/>
<path d="M348 27C353 27 353 3 358 3" stroke="black" stroke-linecap="round"/>
<path d="M198 33H194C189 33 189 57 184 57H188C193 57 193 33 198 33Z" fill="white"/>
<path d="M184 57C189 57 189 33 194 33" stroke="black" stroke-linecap="round"/>
<path d="M188 57C193 57 193 33 198 33" stroke="black" stroke-linecap="round"/>
<path d="M278 33H274C269 33 269 57 264 57H268C273 57 273 33 278 33Z" fill="white"/>
<path d="M264 57C269 57 269 33 274 33" stroke="black" stroke-linecap="round"/>
<path d="M268 57C273 57 273 33 278 33" stroke="black" stroke-linecap="round"/>
<path d="M358 33H354C349 33 349 57 344 57H348C353 57 353 33 358 33Z" fill="white"/>
<path d="M344 57C349 57 349 33 354 33" stroke="black" stroke-linecap="round"/>
<path d="M348 57C353 57 353 33 358 33" stroke="black" stroke-linecap="round"/>
<path d="M198 93H194C189 93 189 117 184 117H188C193 117 193 93 198 93Z" fill="white"/>
<path d="M184 117C189 117 189 93 194 93" stroke="black" stroke-linecap="round"/>
<path d="M188 117C193 117 193 93 198 93" stroke="black" stroke-linecap="round"/>
<path d="M278 93H274C269 93 269 117 264 117H268C273 117 273 93 278 93Z" fill="white"/>
<path d="M264 117C269 117 269 93 274 93" stroke="black" stroke-linecap="round"/>
<path d="M268 117C273 117 273 93 278 93" stroke="black" stroke-linecap="round"/>
<path d="M358 93H354C349 93 349 117 344 117H348C353 117 353 93 358 93Z" fill="white"/>
<path d="M344 117C349 117 349 93 354 93" stroke="black" stroke-linecap="round"/>
<path d="M348 117C353 117 353 93 358 93" stroke="black" stroke-linecap="round"/>
</g>
<defs>
<clipPath id="clip0_302_790">
<rect width="409" height="120" fill="white"/>
</clipPath>
</defs>
</svg>
